<?xml version="1.0" encoding="iso-8859-1"?>
<!-- Generator: Adobe Illustrator 16.0.0, SVG Export Plug-In . SVG Version: 6.00 Build 0)  -->
<!DOCTYPE svg PUBLIC "-//W3C//DTD SVG 1.1//EN" "http://www.w3.org/Graphics/SVG/1.1/DTD/svg11.dtd">
<svg version="1.1" id="Capa_1" xmlns="http://www.w3.org/2000/svg" xmlns:xlink="http://www.w3.org/1999/xlink" x="0px" y="0px"
	 width="548px" height="547.999px" viewBox="0 0 548 547.999" style="enable-background:new 0 0 548 547.999;" xml:space="preserve"
	>
<g>
	<g>
		<path d="M409.545,255.009l-179.16-7.722c-5.118-0.25-9.444,3.746-9.659,8.861c-0.224,5.113,3.743,9.439,8.86,9.659l167.035,7.203
			L363.78,375.476H217.621l-26.399-143.77c-0.579-3.152-2.749-5.782-5.731-6.954l-43.245-16.988
			c-4.77-1.865-10.142,0.474-12.016,5.236c-1.874,4.765,0.474,10.146,5.239,12.016l38.447,15.107L200.79,386.42
			c0.812,4.396,4.644,7.594,9.117,7.594h4.459l-10.179,28.272c-0.856,2.366-0.502,4.999,0.94,7.062
			c1.444,2.059,3.804,3.281,6.319,3.281h7.138c-4.424,4.924-7.138,11.411-7.138,18.533c0,15.331,12.468,27.797,27.799,27.797
			s27.799-12.471,27.799-27.797c0-7.122-2.714-13.609-7.136-18.533h60.616c-4.425,4.924-7.141,11.411-7.141,18.533
			c0,15.331,12.47,27.797,27.807,27.797c15.326,0,27.792-12.471,27.792-27.797c0-7.122-2.712-13.609-7.136-18.533h8.69
			c4.266,0,7.719-3.458,7.719-7.724c0-4.262-3.458-7.72-7.719-7.72H222.438l8.34-23.168h139.761c4.027,0,7.593-2.599,8.82-6.44
			l38.615-120.471c0.887-2.753,0.43-5.759-1.223-8.13C415.099,256.596,412.439,255.133,409.545,255.009z M341.192,438.804
			c6.813,0,12.358,5.544,12.358,12.354c0,6.809-5.545,12.354-12.358,12.354c-6.814,0-12.358-5.545-12.358-12.354
			C328.833,444.348,334.377,438.804,341.192,438.804z M239.251,438.804c6.814,0,12.358,5.544,12.358,12.354
			c0,6.809-5.544,12.354-12.358,12.354c-6.81,0-12.354-5.545-12.354-12.354C226.897,444.348,232.441,438.804,239.251,438.804z"/>
		<path d="M388.506,144.729c1.414,0.816,2.964,1.204,4.489,1.204c3.104,0,6.133-1.615,7.804-4.504l13.488-23.377
			c2.487-4.308,1.017-9.812-3.291-12.293c-4.289-2.485-9.806-1.018-12.293,3.292l-13.492,23.38
			C382.728,136.736,384.204,142.243,388.506,144.729z"/>
		<path d="M511.288,206.049c-2.487-4.312-7.999-5.777-12.293-3.295l-23.382,13.498c-4.303,2.49-5.778,7.99-3.29,12.291
			c1.666,2.887,4.69,4.504,7.798,4.504c1.531,0,3.081-0.388,4.49-1.211l23.382-13.495
			C512.296,215.854,513.771,210.354,511.288,206.049z"/>
		<path d="M538.997,334.046h-26.995c-4.961,0-8.998,4.032-8.998,8.998c0,4.971,4.037,8.998,8.998,8.998h26.995
			c4.97,0,9.003-4.027,9.003-8.998C548,338.078,543.966,334.046,538.997,334.046z"/>
		<path d="M36.002,334.041l-26.999,0.005c-4.975,0-9.003,4.032-9.003,8.998c0,4.971,4.035,8.998,9.003,8.998h26.999
			c4.97,0,8.998-4.032,8.998-9.002C45,338.069,40.972,334.041,36.002,334.041z"/>
		<path d="M72.384,216.247L49,202.75c-4.305-2.485-9.81-1.003-12.295,3.295c-2.485,4.305-1.008,9.81,3.292,12.295l23.389,13.495
			c1.419,0.819,2.961,1.206,4.488,1.206c3.11,0,6.135-1.617,7.808-4.499C78.167,224.237,76.694,218.732,72.384,216.247z"/>
		<path d="M147.211,141.429c1.666,2.889,4.692,4.504,7.799,4.504c1.528,0,3.078-0.392,4.492-1.214
			c4.306-2.487,5.778-7.987,3.292-12.293l-13.506-23.384c-2.478-4.301-7.985-5.773-12.291-3.288
			c-4.301,2.485-5.778,7.99-3.288,12.293L147.211,141.429z"/>
		<path d="M274,114.04c4.971,0,9.003-4.028,9.003-9.003V78.041c0-4.971-4.032-9-9.003-9c-4.966,0-8.998,4.03-8.998,9v26.997
			C265.001,110.017,269.034,114.04,274,114.04z"/>
	</g>
</g>
<g>
</g>
<g>
</g>
<g>
</g>
<g>
</g>
<g>
</g>
<g>
</g>
<g>
</g>
<g>
</g>
<g>
</g>
<g>
</g>
<g>
</g>
<g>
</g>
<g>
</g>
<g>
</g>
<g>
</g>
</svg>
